<?xml version="1.0" encoding="utf-8"?>
<!-- Generator: Adobe Illustrator 19.0.0, SVG Export Plug-In . SVG Version: 6.00 Build 0)  -->
<svg version="1.1" id="Layer_1" xmlns="http://www.w3.org/2000/svg" xmlns:xlink="http://www.w3.org/1999/xlink" x="0px" y="0px"
	 viewBox="-113 367 59.7 59.7" style="enable-background:new -113 367 59.7 59.7;" xml:space="preserve">
<style type="text/css">
	.st0{fill:#323691;}
</style>
<path class="st0" d="M-53.4,379.8h-52h-0.6c0,0-1,0.1-1.2,0.2c-0.1,0-1.1,0.3-1.2,0.4c-0.1,0-0.6,0.2-0.7,0.3
	c-0.1,0.1-0.6,0.3-1.2,0.8c-0.6,0.5-1,1-1,1s-0.4,0.5-0.6,0.9c-0.3,0.5-0.4,0.8-0.6,1.3c-0.2,0.4-0.5,1.6-0.5,2.2s0,27,0,27h52.4
	c0,0,1.2-0.1,2-0.3c0.8-0.2,1.2-0.5,1.2-0.5s0.4-0.2,0.7-0.4c0.3-0.2,0.6-0.4,0.6-0.4s0.7-0.6,0.7-0.7c0.1-0.1,0.5-0.6,0.6-0.7
	c0.1-0.2,0.5-0.7,0.7-1.1s0.3-0.6,0.5-1.3c0.2-0.7,0.2-0.9,0.3-1.3C-53.3,406.8-53.4,379.8-53.4,379.8z M-58.5,402
	c0,0-0.1,0.8-0.1,1.1c-0.1,0.3-0.3,0.9-0.3,0.9s-0.2,0.6-0.5,1.2c-0.3,0.6-0.3,0.6-0.6,1c-0.3,0.4-0.5,0.6-0.5,0.6s-0.4,0.4-0.7,0.6
	c-0.3,0.2-0.5,0.4-1,0.7c-0.4,0.3-0.5,0.3-1.2,0.6c-0.6,0.3-1.3,0.4-2.2,0.5c-0.9,0.1-42.4,0-42.4,0v-2.4c0,0,0-0.7,0.1-1.5
	c0.1-0.8,0.6-1.8,0.6-1.8s0.5-1,0.9-1.4s0.7-0.8,0.7-0.8s0.7-0.7,1.6-1.2s1.6-0.6,1.6-0.6s0.6-0.2,1.3-0.2c0.7-0.1,42.6,0,42.6,0
	v2.7H-58.5z M-58.5,387.3c0,0-0.1,0.8-0.1,1.1c-0.1,0.3-0.3,0.9-0.3,0.9s-0.2,0.6-0.5,1.2s-0.3,0.5-0.6,0.9s-0.5,0.6-0.5,0.6
	s-0.4,0.4-0.7,0.6c-0.3,0.2-0.5,0.4-1,0.7c-0.4,0.3-0.5,0.3-1.2,0.6c-0.6,0.3-1.3,0.4-2.2,0.5s-42.4,0-42.4,0v-2.3
	c0,0,0-0.7,0.1-1.5c0.1-0.8,0.6-1.8,0.6-1.8s0.5-1,0.9-1.4s0.7-0.8,0.7-0.8s0.7-0.7,1.6-1.2s1.6-0.6,1.6-0.6s0.6-0.2,1.3-0.2
	c0.7-0.1,42.6,0,42.6,0v2.7H-58.5z"/>
</svg>
